<?xml version="1.0" encoding="UTF-8"?>
<svg version="1.1" xmlns="http://www.w3.org/2000/svg" width="512" height="512">
<path d="M0 0 C2.74218947 0.00315055 5.48328521 -0.02037171 8.2253418 -0.0456543 C24.40744334 -0.10372891 40.41132092 1.6426071 56.13745117 5.56567383 C56.99274414 5.77619385 57.84803711 5.98671387 58.72924805 6.20361328 C78.90476227 11.34555697 102.29800396 18.62630151 117.57495117 33.31567383 C118.21174805 33.87641602 118.84854492 34.4371582 119.50463867 35.01489258 C129.8296828 44.52013706 135.51992887 58.48676614 136.57495117 72.31567383 C136.76407941 92.90963741 130.10080634 110.34433846 115.70776367 125.24926758 C104.35068106 135.82879059 90.50289086 141.22302683 75.07495117 141.81567383 C64.65381543 141.42970584 54.8705045 138.38482148 45.32495117 134.37817383 C17.46323958 122.69996706 -14.58541614 121.2927179 -42.68286133 132.72583008 C-73.32815944 145.6205124 -95.1444872 169.01700549 -108.42504883 199.31567383 C-124.5849315 239.22872328 -122.96832576 285.5271811 -106.64013672 325.20556641 C-95.71128091 350.53319603 -78.21808192 368.74692756 -52.44116211 379.11352539 C-44.30017874 382.20844469 -36.08488964 384.3345096 -27.42504883 385.31567383 C-26.25220337 385.45247559 -26.25220337 385.45247559 -25.05566406 385.59204102 C-17.98863198 386.33747901 -11.08250385 386.36229907 -3.98754883 386.06567383 C-2.85808838 386.01902588 -1.72862793 385.97237793 -0.56494141 385.92431641 C18.61785201 384.99718641 39.82334499 382.94443768 55.63745117 371.00317383 C58.17641419 367.48138641 58.87133699 364.63443863 58.57495117 360.31567383 C57.09161833 356.17795589 55.53129973 353.34731228 51.57495117 351.31567383 C46.09773617 350.41064045 41.04661835 350.32422628 35.51245117 350.75317383 C-26.68199254 354.63398536 -26.68199254 354.63398536 -49.50708008 335.57739258 C-58.72787075 327.0618249 -63.42734201 316.32261779 -66.42504883 304.31567383 C-66.7131543 303.19999023 -66.7131543 303.19999023 -67.00708008 302.06176758 C-69.5929856 285.07212664 -67.07157084 268.7105947 -57.42504883 254.31567383 C-54.61899097 250.77035769 -51.61241165 247.51952301 -48.42504883 244.31567383 C-47.82176758 243.67758789 -47.21848633 243.03950195 -46.59692383 242.38208008 C-33.37450438 229.47584892 -13.99088237 227.15340561 3.60229492 226.14770508 C4.25043592 226.10845224 4.89857693 226.06919941 5.56635857 226.0287571 C22.55234944 225.01296624 39.55310819 224.9616361 56.56410217 224.99802017 C59.17843874 225.00325591 61.79276334 225.00517336 64.40710449 225.00668335 C94.54082722 225.0368923 124.52514156 225.92084201 154.57495117 228.31567383 C155.38025269 228.37839478 156.1855542 228.44111572 157.01525879 228.5057373 C161.74820594 228.87697326 166.47472651 229.29207399 171.19995117 229.75317383 C172.23023438 229.85090088 173.26051758 229.94862793 174.32202148 230.04931641 C190.98130983 231.94578517 205.93503269 239.18594277 216.57495117 252.31567383 C227.95744379 268.50335045 231.46429172 286.45561323 229.14916992 305.88989258 C225.81164631 322.53655945 216.75976449 335.50964217 202.83666992 345.03833008 C200.71029293 346.23923729 198.96252128 346.87312651 196.57495117 347.31567383 C196.61749023 348.41524414 196.6600293 349.51481445 196.70385742 350.64770508 C196.69575166 355.92455894 195.65896 360.86960426 194.51245117 366.00317383 C194.17528076 367.51331055 194.17528076 367.51331055 193.83129883 369.05395508 C188.51194602 392.04566009 179.94861824 415.36612024 165.57495117 434.31567383 C164.95668457 435.13938477 164.95668457 435.13938477 164.32592773 435.97973633 C156.04950615 446.95853954 147.31790106 457.64956838 136.57495117 466.31567383 C135.66616211 467.06204102 134.75737305 467.8084082 133.82104492 468.57739258 C99.43472127 495.99177076 55.00003337 512.14790002 10.95776367 512.55395508 C10.07093903 512.56374893 9.18411438 512.57354279 8.27041626 512.58363342 C-53.64681237 513.12625755 -114.92681895 496.81822551 -162.42504883 455.31567383 C-163.57360352 454.33147461 -163.57360352 454.33147461 -164.74536133 453.32739258 C-178.55155551 441.2298858 -190.78407907 428.27278795 -201.42504883 413.31567383 C-201.87041992 412.69901855 -202.31579102 412.08236328 -202.7746582 411.44702148 C-224.92910085 380.56989548 -236.34160752 344.46659962 -242.42504883 307.31567383 C-242.62638428 306.09920166 -242.62638428 306.09920166 -242.83178711 304.8581543 C-253.29353973 237.54096971 -238.39288074 156.5426077 -198.0637207 101.22875977 C-185.36926333 84.13628716 -171.26315355 68.41723284 -154.42504883 55.31567383 C-152.98645508 54.15165039 -152.98645508 54.15165039 -151.51879883 52.96411133 C-120.82792533 28.5509165 -84.39151274 12.70562092 -46.17504883 4.56567383 C-45.24168701 4.36675537 -44.3083252 4.16783691 -43.34667969 3.96289062 C-28.85700045 1.03074006 -14.74833352 -0.03523626 0 0 Z " fill="#0D8BA0" transform="translate(263.425048828125,-0.315673828125)"/>
<path d="M0 0 C2.61433657 0.00523574 5.22866117 0.00715319 7.84300232 0.00866318 C37.97672505 0.03887213 67.96103939 0.92282184 98.010849 3.31765366 C98.81615051 3.3803746 99.62145203 3.44309555 100.45115662 3.50771713 C105.18410376 3.87895308 109.91062434 4.29405382 114.635849 4.75515366 C115.6661322 4.85288071 116.69641541 4.95060776 117.75791931 5.05129623 C134.41720766 6.947765 149.37093052 14.1879226 160.010849 27.31765366 C171.39334162 43.50533028 174.90018955 61.45759306 172.58506775 80.89187241 C169.24754413 97.53853928 160.19566231 110.511622 146.27256775 120.04030991 C144.14619076 121.24121712 142.39841911 121.87510634 140.010849 122.31765366 C140.07465759 123.96700912 140.07465759 123.96700912 140.13975525 125.64968491 C140.13164948 130.92653877 139.09485783 135.87158409 137.948349 141.00515366 C137.72356873 142.01191147 137.49878845 143.01866928 137.26719666 144.05593491 C131.94784385 167.04763991 123.38451606 190.36810007 109.010849 209.31765366 C108.3925824 210.14136459 108.3925824 210.14136459 107.76182556 210.98171616 C99.48540398 221.96051937 90.75379889 232.65154821 80.010849 241.31765366 C79.10205994 242.06402084 78.19327087 242.81038803 77.25694275 243.57937241 C42.8706191 270.99375059 -1.56406881 287.14987985 -45.6063385 287.55593491 C-46.49316315 287.56572876 -47.37998779 287.57552261 -48.29368591 287.58561325 C-110.19409336 288.12808996 -171.51222454 271.83092051 -218.989151 230.31765366 C-219.78965881 229.62671616 -220.59016663 228.93577866 -221.41493225 228.22390366 C-226.47240136 223.77139496 -231.31889711 219.11154034 -236.114151 214.38015366 C-236.69535706 213.81199936 -237.27656311 213.24384506 -237.87538147 212.65847397 C-239.28647418 211.25035556 -240.64315571 209.78812187 -241.989151 208.31765366 C-241.989151 207.65765366 -241.989151 206.99765366 -241.989151 206.31765366 C-231.91753642 207.75645574 -221.84592183 209.19525782 -211.77430725 210.63405991 C-210.9439093 210.75055893 -210.11351135 210.86705795 -209.25794983 210.98708725 C-207.39800912 211.25808259 -205.54397894 211.56936016 -203.692276 211.89187241 C-147.65963353 218.33444417 -88.5616963 198.79776446 -43.989151 165.31765366 C-43.33624084 164.78277328 -42.68333069 164.24789291 -42.01063538 163.69680405 C-37.36204674 159.95191831 -33.58952686 158.27475773 -27.739151 157.25515366 C-17.24894227 155.07824333 -5.80636935 152.28377779 1.010849 143.31765366 C2.63847939 139.27987826 2.29430439 136.10834502 0.823349 132.00515366 C-1.03136598 129.25505904 -2.05240078 127.82571458 -4.989151 126.31765366 C-10.466366 125.41262028 -15.51748383 125.32620611 -21.051651 125.75515366 C-83.24609471 129.63596519 -83.24609471 129.63596519 -106.07118225 110.57937241 C-115.29197292 102.06380473 -119.99144419 91.32459762 -122.989151 79.31765366 C-123.18122131 78.57386459 -123.37329163 77.83007553 -123.57118225 77.06374741 C-126.15708777 60.07410647 -123.63567301 43.71257453 -113.989151 29.31765366 C-111.18309315 25.77233752 -108.17651383 22.52150284 -104.989151 19.31765366 C-104.38586975 18.67956772 -103.7825885 18.04148178 -103.161026 17.38405991 C-89.93860656 4.47782875 -70.55498454 2.15538544 -52.96180725 1.14968491 C-52.31366625 1.11043207 -51.66552525 1.07117924 -50.99774361 1.03073692 C-34.01175273 0.01494607 -17.01099398 -0.03638407 0 0 Z " fill="#02718C" transform="translate(319.98915100097656,224.68234634399414)"/>
<path d="M0 0 C2.62050714 -0.01561212 5.24098538 -0.03734305 7.86138916 -0.06536865 C11.59540586 -0.10133567 15.32848185 -0.1092928 19.06265259 -0.10946655 C20.18143799 -0.12374191 21.30022339 -0.13801727 22.45291138 -0.15272522 C32.52910413 -0.09521991 40.49786811 2.45833557 47.88296509 9.4256897 C53.70674838 15.82017781 57.18567331 23.04579793 56.94937134 31.78897095 C56.16648741 38.20861912 54.45945396 44.90319862 49.76187134 49.53897095 C46.53846296 52.88265576 45.30069904 56.64431364 43.88687134 60.97647095 C36.3444808 83.78435875 23.98638561 107.55006931 7.63687134 125.35147095 C4.33296861 126.45277186 2.19250502 126.06213042 -1.19467163 125.58242798 C-4.62424799 125.21715223 -8.0004751 125.52349086 -11.42562866 125.78897095 C-73.62007237 129.66978248 -73.62007237 129.66978248 -96.44515991 110.6131897 C-105.66595058 102.09762202 -110.36542185 91.35841491 -113.36312866 79.35147095 C-113.55519897 78.60768188 -113.74726929 77.86389282 -113.94515991 77.0975647 C-116.53106543 60.10792376 -114.00965067 43.74639182 -104.36312866 29.35147095 C-101.55707081 25.80615481 -98.55049149 22.55532013 -95.36312866 19.35147095 C-94.75984741 18.71338501 -94.15656616 18.07529907 -93.53500366 17.4178772 C-80.65396506 4.84486344 -61.74206711 2.22837258 -44.55062866 1.16397095 C-43.30450806 1.08646606 -42.05838745 1.00896118 -40.77450562 0.92910767 C-27.19820392 0.17676701 -13.59384379 0.07595028 0 0 Z " fill="#11ACB4" transform="translate(310.3631286621094,224.64852905273438)"/>
<path d="M0 0 C5.75554888 5.33048839 9.34887307 11.90033911 9.98828125 19.73046875 C10.15450181 27.05292165 9.69808479 32.56036573 5.75 38.8125 C5.16025391 39.77349609 5.16025391 39.77349609 4.55859375 40.75390625 C-0.35557784 47.38201235 -7.77718721 50.9732252 -14.7421875 55.08984375 C-46.82860534 74.18253298 -69.52597365 102.95883311 -84.25 136.8125 C-84.62769531 137.67359375 -85.00539063 138.5346875 -85.39453125 139.421875 C-94.01627877 160.99341859 -97.5968603 186.86874819 -99.3125 209.875 C-100.12244961 220.3762217 -101.67991611 229.18424057 -109.1796875 237.08984375 C-116.40473405 243.10162776 -124.46254311 245.30744104 -133.69140625 245.21484375 C-141.35498297 244.34838008 -147.91070101 240.63470215 -153.25 235.125 C-163.43261473 221.80544284 -161.04663076 205.19383505 -159.11572266 189.52856445 C-153.10711489 144.7928355 -141.58494681 101.46684265 -114.25 64.8125 C-113.57735107 63.90661133 -113.57735107 63.90661133 -112.89111328 62.98242188 C-106.22258635 54.07824548 -98.94668341 45.8363538 -91.25 37.8125 C-90.46753906 36.98878906 -89.68507813 36.16507813 -88.87890625 35.31640625 C-83.37776833 29.65837313 -77.44124774 24.69597081 -71.25 19.8125 C-70.28578125 19.03132813 -69.3215625 18.25015625 -68.328125 17.4453125 C-59.12331021 10.13285811 -49.29326405 3.90673602 -39.25 -2.1875 C-38.61803711 -2.58485352 -37.98607422 -2.98220703 -37.33496094 -3.39160156 C-25.35289723 -10.69389052 -10.58438036 -8.47538837 0 0 Z " fill="#3BD2D2" transform="translate(180.25,35.1875)"/>
<path d="M0 0 C1.25554687 0.11408203 2.51109375 0.22816406 3.8046875 0.34570312 C20.43633921 2.04509907 34.90557067 7.60714803 46.5546875 19.94921875 C59.12995533 35.46718393 62.99618086 53.24553142 61.875 72.8125 C60.02800453 88.31709502 52.38394323 102.17737794 40.21875 111.9453125 C33.26170024 116.99940453 33.26170024 116.99940453 28.875 117.8125 C28.93880859 119.46185547 28.93880859 119.46185547 29.00390625 121.14453125 C28.99580048 126.42138512 27.95900883 131.36643044 26.8125 136.5 C26.58771973 137.50675781 26.36293945 138.51351562 26.13134766 139.55078125 C20.81199485 162.54248626 12.24866706 185.86294642 -2.125 204.8125 C-2.7432666 205.63621094 -2.7432666 205.63621094 -3.37402344 206.4765625 C-11.65044502 217.45536571 -20.38205011 228.14639455 -31.125 236.8125 C-32.03378906 237.55886719 -32.94257813 238.30523437 -33.87890625 239.07421875 C-65.76766312 264.49742041 -109.76906297 283.60769341 -151.125 281.8125 C-148.0749558 279.35508097 -144.82994527 277.43920972 -141.44067383 275.50219727 C-132.59061888 270.44347311 -124.26028975 264.94673315 -116.125 258.8125 C-115.55716797 258.38888184 -114.98933594 257.96526367 -114.40429688 257.52880859 C-68.7367345 223.30387952 -39.3417362 176.02065469 -23.125 121.8125 C-22.81151611 120.78334473 -22.81151611 120.78334473 -22.49169922 119.73339844 C-21.11849637 115.1416388 -20.04548724 110.51263618 -19.125 105.8125 C-18.85212158 104.42732178 -18.85212158 104.42732178 -18.57373047 103.01416016 C-12.8707183 72.52256933 -12.44347076 39.54255575 -18.66748047 9.11865234 C-19.28042975 6.02904781 -19.71584802 2.93497561 -20.125 -0.1875 C-13.26022961 -1.5802302 -6.91204819 -0.72116632 0 0 Z " fill="#015382" transform="translate(431.125,229.1875)"/>
<path d="M0 0 C0.33 0 0.66 0 1 0 C1.08636719 0.75023437 1.17273438 1.50046875 1.26171875 2.2734375 C2.47296014 11.0966087 4.52266746 19.13153592 11.25 25.375 C19.33146959 31.47945772 26.89871755 33.20282586 37 32 C43.62627703 30.35955868 49.59630139 27.30241261 54 22 C55.92346444 18.76694275 57.48472001 15.4391748 59 12 C59.66229132 10.66448795 60.32828579 9.3307976 61 8 C61.00410889 8.97420898 61.00821777 9.94841797 61.01245117 10.95214844 C61.16449633 35.14509593 62.53004074 58.15412716 69.39331055 81.53442383 C71.3873199 89.63804575 70.01661239 96.76061897 66 104 C60.92513011 111.33607774 53.83546049 117.05619869 45 119 C35.155546 119.94560793 27.43057148 117.7469141 19.7265625 111.546875 C16.28946891 108.46748799 13.69076157 105.66264061 13 101 C12.34 101 11.68 101 11 101 C7.67459365 88.67300523 4.68935004 76.36722659 2.6875 63.75 C2.52862305 62.75299072 2.36974609 61.75598145 2.20605469 60.72875977 C0.10533531 46.86747459 -0.12819492 33.23682074 -0.0625 19.25 C-0.05747365 17.37760537 -0.05291276 15.50520942 -0.04882812 13.6328125 C-0.03791543 9.08850877 -0.02071371 4.54426919 0 0 Z " fill="#12ACB4" transform="translate(19,247)"/>
<path d="M0 0 C7.06610067 4.84984914 12.52417903 9.82231368 14.91796875 18.31640625 C16.0755125 28.49869377 15.42049052 36.96728062 9.375 45.4921875 C2.84314356 53.66821833 -5.44981381 55.88754163 -15.26953125 58.50390625 C-26.33473926 61.57109824 -36.67356835 65.66405843 -47.08105469 70.48779297 C-49.06414672 71.30900019 -50.98931662 71.85220623 -53.08203125 72.31640625 C-52.68371094 71.83171875 -52.28539062 71.34703125 -51.875 70.84765625 C-44.85737858 61.96891382 -43.02664548 54.71172013 -44.08203125 43.31640625 C-45.98921027 34.81702149 -51.06800264 28.24950936 -58.08203125 23.31640625 C-65.83449061 19.00948438 -74.46140039 20.05190962 -83.08203125 20.31640625 C-66.57930529 6.32209464 -21.01638111 -11.66673381 0 0 Z " fill="#12ACB4" transform="translate(233.08203125,8.68359375)"/>
<path d="M0 0 C7.98059241 4.51169491 13.54687454 10.90340758 16.25 19.75 C17.43663358 30.19237547 15.82813922 38.05201993 9.8125 46.8125 C5.45393023 52.26071222 -0.60307245 56.05425571 -7.4375 57.5 C-17.54256983 58.4546941 -25.59615728 56.76772571 -33.6875 50.5 C-40.36476444 44.10774075 -43.76393097 36.52833057 -44.0625 27.3125 C-43.61168515 18.20604001 -40.5920365 11.94840234 -34.44140625 5.29296875 C-24.83412561 -3.30301919 -11.7715651 -5.48447919 0 0 Z " fill="#3BD2D2" transform="translate(298.4375,260.5)"/>
<path d="M0 0 C0.5775 0.44214844 1.155 0.88429688 1.75 1.33984375 C2.636875 1.89671875 3.52375 2.45359375 4.4375 3.02734375 C11.0428244 9.63266815 13.83134341 16.89224466 14.0625 26.08984375 C13.95317057 35.01112562 10.68683703 41.0788645 4.68359375 47.546875 C-2.98324437 54.6561249 -10.1462358 55.9091015 -20.4140625 55.6796875 C-28.37196377 54.97465959 -34.41184849 51.09199054 -39.78125 45.3046875 C-45.54159748 37.59869074 -47.14544366 28.75479421 -46.25 19.33984375 C-43.76791071 10.00958041 -37.25869836 3.12511059 -29.14453125 -1.75 C-20.60623009 -5.8519055 -7.77518005 -5.31598484 0 0 Z " fill="#11ACB4" transform="translate(153.25,367.66015625)"/>
<path d="M0 0 C0.66 0 1.32 0 2 0 C-1.13811463 21.23600862 -15.5206953 42.88325758 -27.6484375 60.06152344 C-28.86919189 61.81238866 -30.03342187 63.58770037 -31.1875 65.3828125 C-31.826875 66.30835938 -32.46625 67.23390625 -33.125 68.1875 C-33.64320313 68.96480469 -34.16140625 69.74210937 -34.6953125 70.54296875 C-37.97370484 72.6155795 -40.27278018 71.86646423 -44.02197266 71.32983398 C-49.71016373 70.69983348 -55.42048192 71.17181848 -61.125 71.4375 C-62.36765625 71.48970703 -63.6103125 71.54191406 -64.890625 71.59570312 C-67.92741301 71.72418262 -70.96376798 71.85908458 -74 72 C-71.76159668 69.76159668 -70.20506504 69.23968225 -67.25 68.1875 C-58.73936401 64.83222768 -54.93980883 59.9894928 -51 52 C-50.67 51.34 -50.34 50.68 -50 50 C-50.07935318 47.95978792 -50.16217822 45.91960964 -50.26831055 43.88061523 C-50.79749513 31.76265152 -50.79749513 31.76265152 -46.6875 26.9375 C-46.04941406 26.2775 -45.41132813 25.6175 -44.75390625 24.9375 C-40.10331168 19.80009486 -39.76119258 12.59469568 -39 6 C-38.20416504 5.9906543 -37.40833008 5.98130859 -36.58837891 5.97167969 C-32.93332349 5.91753072 -29.27948716 5.83396924 -25.625 5.75 C-24.37332031 5.73582031 -23.12164062 5.72164063 -21.83203125 5.70703125 C-10.0846602 5.47529019 -10.0846602 5.47529019 0 0 Z " fill="#0D8BA0" transform="translate(354,279)"/>
<path d="M0 0 C3.6041498 -0.02900455 7.20826962 -0.04680018 10.8125 -0.0625 C11.83666016 -0.07087891 12.86082031 -0.07925781 13.91601562 -0.08789062 C15.39038086 -0.09272461 15.39038086 -0.09272461 16.89453125 -0.09765625 C17.80050049 -0.10289307 18.70646973 -0.10812988 19.63989258 -0.11352539 C22 0 22 0 25 1 C25.09945415 7.11090483 25.0712828 12.97403427 24 19 C23.34 19 22.68 19 22 19 C20.95703125 17.4609375 20.95703125 17.4609375 19.8125 15.375 C14.93009648 7.34174305 8.7581252 3.99573699 0 1 C0 0.67 0 0.34 0 0 Z " fill="#0C8BA0" transform="translate(342,225)"/>
<path d="M0 0 C0.66 0.33 1.32 0.66 2 1 C-7.57 10.57 -17.14 20.14 -27 30 C-27.66 29.67 -28.32 29.34 -29 29 C-9.34628571 7.78857143 -9.34628571 7.78857143 0 0 Z " fill="#2EC5C9" transform="translate(105,58)"/>
</svg>
